<svg width="38" height="40" viewBox="0 0 38 40" fill="none" xmlns="http://www.w3.org/2000/svg">
<g filter="url(#filter0_d_44_17904)">
<path d="M28.053 5.96007C27.1585 6.01119 26.2612 5.93941 25.3863 5.74674C24.3309 5.38534 23.3438 4.84897 22.4663 4.16007C21.7156 3.62793 21.0028 3.0443 20.333 2.41341C20.049 2.14815 19.6749 2.00061 19.2863 2.00061C18.8977 2.00061 18.5236 2.14815 18.2396 2.41341C17.5876 3.02435 16.9021 3.59857 16.1863 4.13341C15.3034 4.83136 14.3126 5.38079 13.253 5.76007C12.2563 5.98526 11.2326 6.06608 10.213 6.00007C9.37809 5.9655 8.54574 5.88538 7.71962 5.76007C7.51775 5.73015 7.31191 5.74118 7.1144 5.79251C6.91688 5.84384 6.73172 5.93442 6.56996 6.05885C6.40821 6.18328 6.27316 6.33901 6.17288 6.51675C6.0726 6.6945 6.00914 6.89061 5.98629 7.09341C5.91962 7.73341 5.74629 9.40007 5.66629 11.2534C5.55417 13.1051 5.67061 14.9635 6.01295 16.7867C6.97834 19.8074 8.75388 22.5053 11.1463 24.5867C13.0479 26.3804 15.1098 27.9961 17.3063 29.4134C17.8949 29.8176 18.5922 30.0339 19.3063 30.0339C20.0203 30.0339 20.7176 29.8176 21.3063 29.4134C23.3863 27.9591 25.3318 26.3215 27.1196 24.5201C29.372 22.4234 31.04 19.7766 31.9596 16.8401" stroke="#1A202C" stroke-width="2.5" stroke-linecap="round" stroke-linejoin="round"/>
<path d="M17.6665 14.6667L21.4798 18.48C21.5036 18.5059 21.5324 18.5265 21.5645 18.5406C21.5967 18.5548 21.6314 18.5621 21.6665 18.5621C21.7016 18.5621 21.7363 18.5548 21.7685 18.5406C21.8006 18.5265 21.8294 18.5059 21.8532 18.48L32.3332 8" stroke="#3563E9" stroke-width="2.5" stroke-linecap="round" stroke-linejoin="round"/>
</g>
<defs>
<filter id="filter0_d_44_17904" x="-1" y="0" width="40" height="40" filterUnits="userSpaceOnUse" color-interpolation-filters="sRGB">
<feFlood flood-opacity="0" result="BackgroundImageFix"/>
<feColorMatrix in="SourceAlpha" type="matrix" values="0 0 0 0 0 0 0 0 0 0 0 0 0 0 0 0 0 0 127 0" result="hardAlpha"/>
<feOffset dy="4"/>
<feGaussianBlur stdDeviation="2"/>
<feComposite in2="hardAlpha" operator="out"/>
<feColorMatrix type="matrix" values="0 0 0 0 0 0 0 0 0 0 0 0 0 0 0 0 0 0 0.25 0"/>
<feBlend mode="normal" in2="BackgroundImageFix" result="effect1_dropShadow_44_17904"/>
<feBlend mode="normal" in="SourceGraphic" in2="effect1_dropShadow_44_17904" result="shape"/>
</filter>
</defs>
</svg>
